<svg xmlns="http://www.w3.org/2000/svg" width="28" height="28" viewBox="0 0 28 28">
  <path id="Path_376" data-name="Path 376" d="M14,2.489a42.927,42.927,0,0,1,5.6.156,7.215,7.215,0,0,1,2.644.467,5.463,5.463,0,0,1,2.644,2.644A7.215,7.215,0,0,1,25.356,8.4c0,1.4.156,1.867.156,5.6a42.926,42.926,0,0,1-.156,5.6,7.215,7.215,0,0,1-.467,2.644,5.463,5.463,0,0,1-2.644,2.644,7.215,7.215,0,0,1-2.644.467c-1.4,0-1.867.156-5.6.156a42.926,42.926,0,0,1-5.6-.156,7.215,7.215,0,0,1-2.644-.467,5.463,5.463,0,0,1-2.644-2.644A7.215,7.215,0,0,1,2.644,19.6c0-1.4-.156-1.867-.156-5.6a42.927,42.927,0,0,1,.156-5.6,7.215,7.215,0,0,1,.467-2.644A5.587,5.587,0,0,1,4.2,4.2,2.63,2.63,0,0,1,5.756,3.111,7.215,7.215,0,0,1,8.4,2.644,42.927,42.927,0,0,1,14,2.489M14,0A45.962,45.962,0,0,0,8.244.156,9.6,9.6,0,0,0,4.822.778,6.09,6.09,0,0,0,2.333,2.333,6.09,6.09,0,0,0,.778,4.822,7.088,7.088,0,0,0,.156,8.244,45.962,45.962,0,0,0,0,14a45.962,45.962,0,0,0,.156,5.756,9.6,9.6,0,0,0,.622,3.422,6.09,6.09,0,0,0,1.556,2.489,6.09,6.09,0,0,0,2.489,1.556,9.6,9.6,0,0,0,3.422.622A45.963,45.963,0,0,0,14,28a45.963,45.963,0,0,0,5.756-.156,9.6,9.6,0,0,0,3.422-.622,6.526,6.526,0,0,0,4.044-4.044,9.6,9.6,0,0,0,.622-3.422C27.844,18.2,28,17.733,28,14a45.963,45.963,0,0,0-.156-5.756,9.6,9.6,0,0,0-.622-3.422,6.09,6.09,0,0,0-1.556-2.489A6.09,6.09,0,0,0,23.178.778,9.6,9.6,0,0,0,19.756.156,45.962,45.962,0,0,0,14,0m0,6.844A7.04,7.04,0,0,0,6.844,14,7.156,7.156,0,1,0,14,6.844m0,11.822A4.583,4.583,0,0,1,9.333,14,4.583,4.583,0,0,1,14,9.333,4.583,4.583,0,0,1,18.667,14,4.583,4.583,0,0,1,14,18.667M21.467,4.822a1.711,1.711,0,1,0,1.711,1.711,1.726,1.726,0,0,0-1.711-1.711" fill="#c6c1be" fill-rule="evenodd"/>
</svg>
