<svg xmlns="http://www.w3.org/2000/svg" width="111" height="93" viewBox="0 0 111 93">
  <g id="Group_5" data-name="Group 5" transform="translate(-12078 -42)">
    <g id="pope" transform="translate(12099 29.785)">
      <path id="Path_4" data-name="Path 4" d="M68.613,46.991a17.469,17.469,0,0,0-8.936-15.253,17.2,17.2,0,0,0-7.14-2.1,14.326,14.326,0,0,0-1.5-1.2,12.371,12.371,0,0,0-15.159.935V24.628h-.027a1.544,1.544,0,0,0,.054-.222V24.4l2.535,1.386L34.9,20.306v-.05h.05L40.428,23.8l-1.383-2.534h0a4.076,4.076,0,0,0,2.7-1.608,4.075,4.075,0,0,0-2.7-1.605h0l1.383-2.533-5.476,3.541H34.9v-.048l3.543-5.478-2.535,1.386v-.008a4.078,4.078,0,0,0-1.6-2.7,4.078,4.078,0,0,0-1.6,2.7v.008l-2.541-1.386L33.7,19.014v.047h-.048L28.178,15.52l1.388,2.533h-.005a4.071,4.071,0,0,0-2.7,1.605,4.07,4.07,0,0,0,2.7,1.608h.005L28.178,23.8l5.478-3.543H33.7v.05l-3.542,5.477L32.7,24.4v.008a1.491,1.491,0,0,0,.055.222h-.033V29.36a12.361,12.361,0,0,0-15.152-.922,13.545,13.545,0,0,0-1.422,1.144,15.822,15.822,0,0,0-7.665,2.168A17.963,17.963,0,0,0,.765,52.2c.67,3.206,2.639,6.575,5.19,9.831H1.935v2.428H4.679v3.195H1.935v2.423H66.672V67.652H63.933V64.458h2.739V62.029H62.384c2.653-3.211,4.685-6.518,5.371-9.665A17.336,17.336,0,0,0,68.613,46.991ZM35.629,34.373c3.314-5.012,9.135-6.437,13.617-3.341,3.607,2.509,5.859,7.325,5.859,12.58a18.114,18.114,0,0,1-.6,4.612c-.782,4.43-4.09,9.381-7.859,13.806H34.971a10.169,10.169,0,0,0,1.212-3.289,1.634,1.634,0,0,0-.1-.507,3.167,3.167,0,0,0,1.142.563c2.219.517,3.4-2.645,2.755-3.35-1.013-1-1.732,1.442-2.417,1.656a2.4,2.4,0,0,1-1.758-.134V49.928h7.038a2.421,2.421,0,0,1,.139,1.756c-.2.686-2.653,1.4-1.656,2.415.707.651,3.873-.534,3.35-2.758a3.04,3.04,0,0,0-.555-1.136,1.386,1.386,0,0,0,.5.1c1.278,0,4.557-1.879,4.557-1.879s-3.278-1.879-4.557-1.879a1.55,1.55,0,0,0-.5.1,3.057,3.057,0,0,0,.555-1.144c.523-2.23-2.643-3.4-3.35-2.758-.992,1.021,1.45,1.732,1.656,2.417a2.422,2.422,0,0,1-.139,1.755H35.8V39.875a2.417,2.417,0,0,1,1.758-.14c.686.214,1.4,2.662,2.417,1.662.646-.705-.536-3.869-2.755-3.347a3.259,3.259,0,0,0-1.142.558,1.462,1.462,0,0,0,.1-.5,9.062,9.062,0,0,0-1.056-2.978ZM19.368,31.031a9.145,9.145,0,0,1,5.2-1.69c3.227,0,6.3,1.833,8.425,5.031l.489.734a9.26,9.26,0,0,0-1.063,3,1.4,1.4,0,0,0,.107.505,3.235,3.235,0,0,0-1.147-.56c-2.223-.519-3.4,2.642-2.755,3.347,1.015,1,1.732-1.447,2.423-1.662a2.4,2.4,0,0,1,1.749.14v7.043H25.757a2.4,2.4,0,0,1-.134-1.755c.2-.686,2.655-1.4,1.658-2.417-.707-.646-3.87.528-3.35,2.758a3.049,3.049,0,0,0,.562,1.136,1.456,1.456,0,0,0-.5-.1c-1.277,0-4.557,1.876-4.557,1.876S22.71,50.3,23.988,50.3a1.414,1.414,0,0,0,.5-.1,3.178,3.178,0,0,0-.562,1.144c-.52,2.225,2.643,3.409,3.35,2.758,1-1.016-1.449-1.732-1.658-2.415a2.4,2.4,0,0,1,.134-1.756H32.8v7.046a2.378,2.378,0,0,1-1.749.134c-.691-.212-1.409-2.659-2.423-1.659-.649.705.532,3.87,2.755,3.347a3.228,3.228,0,0,0,1.142-.558,1.529,1.529,0,0,0-.1.507,10.3,10.3,0,0,0,1.2,3.288H22c-3.794-4.46-7.123-9.442-7.916-13.929a17.655,17.655,0,0,1-.579-4.494C13.508,38.364,15.754,33.543,19.368,31.031ZM3.824,51.413a14.905,14.905,0,0,1-.67-4.422,14.5,14.5,0,0,1,6.93-12.518,12.988,12.988,0,0,1,3.132-1.312,20.149,20.149,0,0,0-2.862,10.45,20.494,20.494,0,0,0,.653,5.164c.772,4.35,3.555,8.992,6.9,13.259H10.072C6.979,58.5,4.534,54.814,3.824,51.413Zm60.9.126c-.74,3.345-3.3,6.992-6.524,10.5H50.731C54.059,57.8,56.826,53.2,57.587,48.9a20.952,20.952,0,0,0,.67-5.291,20.213,20.213,0,0,0-2.729-10.223,13.958,13.958,0,0,1,2.611,1.1,14.311,14.311,0,0,1,7.322,12.5A14.894,14.894,0,0,1,64.721,51.539Z" transform="translate(0)" fill="#fff59d"/>
    </g>
    <text id="Balthazar" transform="translate(12078 128)" fill="#fff59d" font-size="26" font-family="PlayfairDisplay-Regular, Playfair Display"><tspan x="0" y="0">Balthazar</tspan></text>
  </g>
</svg>
