<svg xmlns="http://www.w3.org/2000/svg" width="69" height="60" viewBox="0 0 69 60">
  <g id="Group_8" data-name="Group 8" transform="translate(-9 -10)">
    <g id="pope" transform="translate(20 -2.215)">
      <path id="Path_4" data-name="Path 4" d="M46,35.53A11.712,11.712,0,0,0,40.009,25.3,11.533,11.533,0,0,0,35.222,23.9a9.6,9.6,0,0,0-1-.808,8.294,8.294,0,0,0-10.163.627v-3.18h-.018a1.035,1.035,0,0,0,.036-.149v-.006l1.7.929L23.4,17.64v-.033h.033L27.1,19.982l-.927-1.7h0a2.733,2.733,0,0,0,1.811-1.078,2.732,2.732,0,0,0-1.811-1.076h0l.927-1.7L23.432,16.8H23.4v-.032L25.774,13.1l-1.7.929v-.006A2.734,2.734,0,0,0,23,12.215a2.734,2.734,0,0,0-1.074,1.809v.006l-1.7-.929L22.6,16.773V16.8h-.032l-3.673-2.374.931,1.7h0a2.729,2.729,0,0,0-1.81,1.076,2.729,2.729,0,0,0,1.81,1.078h0l-.931,1.7,3.673-2.375H22.6v.033l-2.375,3.672,1.7-.929v.006a1,1,0,0,0,.037.149H21.94V23.71a8.287,8.287,0,0,0-10.159-.618,9.081,9.081,0,0,0-.953.767,10.608,10.608,0,0,0-5.139,1.454A12.043,12.043,0,0,0,.513,39.021a16.98,16.98,0,0,0,3.48,6.591H1.3V47.24h1.84v2.142H1.3v1.624H44.7V49.382H42.862V47.24H44.7V45.612H41.824a16.323,16.323,0,0,0,3.6-6.48A11.623,11.623,0,0,0,46,35.53ZM23.887,27.07c2.222-3.36,6.125-4.315,9.129-2.24a10.25,10.25,0,0,1,3.928,8.434,12.144,12.144,0,0,1-.4,3.092c-.524,2.97-2.742,6.289-5.269,9.256H23.445a6.818,6.818,0,0,0,.812-2.2,1.1,1.1,0,0,0-.068-.34,2.123,2.123,0,0,0,.765.377c1.488.347,2.28-1.774,1.847-2.246-.679-.669-1.161.966-1.621,1.11A1.612,1.612,0,0,1,24,42.219V37.5h4.719a1.623,1.623,0,0,1,.093,1.177c-.136.46-1.779.941-1.11,1.619.474.436,2.6-.358,2.246-1.849a2.038,2.038,0,0,0-.372-.762.929.929,0,0,0,.338.066,10.846,10.846,0,0,0,3.055-1.26,10.842,10.842,0,0,0-3.055-1.26,1.039,1.039,0,0,0-.338.068,2.049,2.049,0,0,0,.372-.767c.351-1.495-1.772-2.282-2.246-1.849-.665.684.972,1.161,1.11,1.621a1.624,1.624,0,0,1-.093,1.177H24V30.759a1.621,1.621,0,0,1,1.179-.094c.46.144.941,1.784,1.621,1.114.433-.473-.359-2.594-1.847-2.244a2.185,2.185,0,0,0-.765.374.98.98,0,0,0,.068-.337,6.075,6.075,0,0,0-.708-2Zm-10.9-2.24A6.131,6.131,0,0,1,16.474,23.7a6.9,6.9,0,0,1,5.648,3.373l.328.492a6.208,6.208,0,0,0-.712,2.01.935.935,0,0,0,.072.339,2.169,2.169,0,0,0-.769-.376c-1.491-.348-2.282,1.771-1.847,2.244.68.67,1.161-.97,1.624-1.114a1.611,1.611,0,0,1,1.173.094v4.722H17.268a1.611,1.611,0,0,1-.09-1.177c.137-.46,1.78-.938,1.111-1.621-.474-.433-2.594.354-2.246,1.849a2.044,2.044,0,0,0,.377.762.976.976,0,0,0-.338-.065,10.866,10.866,0,0,0-3.055,1.258,10.853,10.853,0,0,0,3.055,1.26.948.948,0,0,0,.338-.068,2.131,2.131,0,0,0-.377.767c-.349,1.491,1.772,2.285,2.246,1.849.669-.681-.971-1.161-1.111-1.619a1.612,1.612,0,0,1,.09-1.177H21.99v4.724a1.594,1.594,0,0,1-1.173.09c-.464-.142-.944-1.783-1.624-1.113-.435.473.356,2.595,1.847,2.244a2.164,2.164,0,0,0,.765-.374,1.025,1.025,0,0,0-.068.34,6.908,6.908,0,0,0,.806,2.2h-7.8c-2.543-2.99-4.775-6.33-5.307-9.339a11.836,11.836,0,0,1-.388-3.013A10.259,10.259,0,0,1,12.985,24.83ZM2.563,38.495a9.993,9.993,0,0,1-.449-2.965A9.72,9.72,0,0,1,6.76,27.137a8.707,8.707,0,0,1,2.1-.88,13.508,13.508,0,0,0-1.919,7.006,13.74,13.74,0,0,0,.438,3.462C7.9,39.642,9.762,42.755,12,45.615H6.753C4.679,43.247,3.039,40.774,2.563,38.495Zm40.827.084c-.5,2.242-2.21,4.688-4.374,7.036H34.011c2.231-2.839,4.086-5.926,4.6-8.8a14.046,14.046,0,0,0,.449-3.547,13.551,13.551,0,0,0-1.829-6.854,9.358,9.358,0,0,1,1.75.739,9.6,9.6,0,0,1,4.909,8.379A9.985,9.985,0,0,1,43.391,38.579Z" transform="translate(0)" fill="#fff59d"/>
    </g>
    <text id="Balthazar" transform="translate(9 66)" fill="#fff59d" font-size="16" font-family="PlayfairDisplay-Regular, Playfair Display"><tspan x="0" y="0">Balthazar</tspan></text>
  </g>
</svg>
